<mxfile host="app.diagrams.net" agent="Mozilla/5.0 (Windows NT 10.0; Win64; x64) AppleWebKit/537.36 (KHTML, like Gecko) Chrome/131.0.0.0 Safari/537.36" version="25.0.3">
  <diagram name="第 1 页" id="JiPXwJTJXFG5wIBRrole">
    <mxGraphModel dx="1050" dy="522" grid="1" gridSize="10" guides="1" tooltips="1" connect="1" arrows="1" fold="1" page="1" pageScale="1" pageWidth="827" pageHeight="1169" math="0" shadow="0">
      <root>
        <mxCell id="0" />
        <mxCell id="1" parent="0" />
        <mxCell id="Ka6zoIv5gAv9ayU1NSag-3" value="" style="shape=cube;whiteSpace=wrap;html=1;boundedLbl=1;backgroundOutline=1;darkOpacity=0.05;darkOpacity2=0.1;rotation=-180;" vertex="1" parent="1">
          <mxGeometry x="210" y="50" width="60" height="220" as="geometry" />
        </mxCell>
        <mxCell id="Ka6zoIv5gAv9ayU1NSag-4" value="&lt;font style=&quot;font-size: 20px;&quot; face=&quot;Times New Roman&quot;&gt;&lt;b&gt;x&lt;/b&gt;&lt;/font&gt;" style="text;html=1;align=center;verticalAlign=middle;whiteSpace=wrap;rounded=0;" vertex="1" parent="1">
          <mxGeometry x="70" y="145" width="60" height="30" as="geometry" />
        </mxCell>
        <mxCell id="Ka6zoIv5gAv9ayU1NSag-5" value="" style="shape=flexArrow;endArrow=classic;html=1;rounded=0;exitX=1;exitY=0.5;exitDx=0;exitDy=0;" edge="1" parent="1" source="Ka6zoIv5gAv9ayU1NSag-4">
          <mxGeometry width="50" height="50" relative="1" as="geometry">
            <mxPoint x="390" y="300" as="sourcePoint" />
            <mxPoint x="207" y="160" as="targetPoint" />
          </mxGeometry>
        </mxCell>
        <mxCell id="Ka6zoIv5gAv9ayU1NSag-6" value="&lt;font style=&quot;font-size: 20px;&quot; face=&quot;Times New Roman&quot;&gt;&lt;b style=&quot;&quot;&gt;S&lt;/b&gt;&lt;/font&gt;" style="text;html=1;align=center;verticalAlign=middle;whiteSpace=wrap;rounded=0;" vertex="1" parent="1">
          <mxGeometry x="200" y="130" width="60" height="30" as="geometry" />
        </mxCell>
      </root>
    </mxGraphModel>
  </diagram>
</mxfile>
